<svg width="1000" height="1000" xmlns="http://www.w3.org/2000/svg">

 <metadata>Svg Vector Icons : http://www.onlinewebfonts.com/icon</metadata>
 <g class="currentLayer">
  <title>Layer 1</title>
  <g fill="#ffc107" id="svg_1">
   <path fill="#ff7f00" id="svg_2" d="m990,740.5l0,-104.4l-417.4,-235.9l0,-217.8c0,0 0,-158.8 -72.6,-158.8s-72.6,158.8 -72.6,158.8l0,217.8l-417.4,235.9l0,104.4l417.4,-90.7l0,145.2l-145.2,118l0,63.5l185,-34.7c7.5,10 19.4,16.5 32.8,16.5c13.4,0 25.4,-6.5 32.8,-16.5l185,34.7l0,-63.5l-145.2,-118l0,-145.3l417.4,90.8z"/>
  </g>
 </g>
 <g>
  <title>Layer 2</title>
  <rect fill="none" y="0" x="0" height="100%" width="100%" id="backgroundrect"/>
 </g>
 <g>
  <title>background</title>
  <rect fill="none" id="canvas_background" height="402" width="582" y="-1" x="-1"/>
 </g>
</svg>